<svg width="45" height="45" viewBox="0 0 45 45" fill="none" xmlns="http://www.w3.org/2000/svg">
<g clip-path="url(#clip0_67_4103)">
<path d="M0.960352 22.2308C0.959297 26.0117 1.95492 29.7034 3.84809 32.9574L0.779297 44.0752L12.2459 41.0919C15.4174 42.805 18.9708 43.7027 22.5818 43.7029H22.5913C34.5119 43.7029 44.2155 34.078 44.2206 22.2477C44.2229 16.5151 41.975 11.1245 37.8909 7.06894C33.8075 3.0137 28.3768 0.779228 22.5904 0.776611C10.6684 0.776611 0.965449 10.401 0.960527 22.2308" fill="url(#paint0_linear_67_4103)"/>
<path d="M0.188086 22.2237C0.186855 26.1406 1.21816 29.9644 3.17883 33.3349L0 44.8512L11.8777 41.761C15.1504 43.5316 18.8351 44.4651 22.5846 44.4664H22.5942C34.9425 44.4664 44.9947 34.4953 45 22.2415C45.0021 16.3029 42.6734 10.7185 38.4434 6.51767C34.2128 2.31733 28.5878 0.00244186 22.5942 0C10.2438 0 0.193008 9.96977 0.188086 22.2237ZM7.2617 32.7544L6.8182 32.0559C4.95387 29.1145 3.96984 25.7154 3.97125 22.2251C3.97512 12.0399 12.3289 3.75349 22.6013 3.75349C27.5759 3.75558 32.2509 5.67977 35.7673 9.17093C39.2834 12.6624 41.2182 17.3037 41.217 22.2401C41.2124 32.4253 32.8584 40.7128 22.5942 40.7128H22.5868C19.2447 40.711 15.9669 39.8205 13.1084 38.1375L12.4281 37.7372L5.37961 39.5709L7.2617 32.7544Z" fill="url(#paint1_linear_67_4103)"/>
<path d="M16.9942 12.9327C16.5748 12.0078 16.1334 11.9891 15.7345 11.9729C15.4079 11.9589 15.0346 11.96 14.6616 11.96C14.2882 11.96 13.6816 12.0993 13.1688 12.6549C12.6556 13.2109 11.2092 14.5546 11.2092 17.2876C11.2092 20.0206 13.2154 22.662 13.4951 23.0329C13.7751 23.4032 17.3681 29.1911 23.0585 31.4178C27.7877 33.2682 28.7501 32.9002 29.7765 32.8074C30.803 32.7149 33.0889 31.464 33.5552 30.1668C34.0219 28.8699 34.0219 27.7581 33.882 27.5258C33.7421 27.2943 33.3687 27.1553 32.8089 26.8777C32.249 26.6 29.4965 25.2559 28.9833 25.0705C28.4701 24.8853 28.0969 24.7928 27.7235 25.349C27.3502 25.9044 26.2781 27.1553 25.9513 27.5258C25.6249 27.8971 25.2981 27.9433 24.7384 27.6655C24.1782 27.3868 22.3752 26.8009 20.2361 24.9086C18.5718 23.4362 17.4482 21.6179 17.1216 21.0617C16.795 20.5063 17.0867 20.2053 17.3674 19.9285C17.6189 19.6796 17.9274 19.2798 18.2076 18.9556C18.4867 18.6311 18.5799 18.3997 18.7666 18.0292C18.9534 17.6584 18.8599 17.334 18.7202 17.0561C18.5799 16.7783 17.492 14.031 16.9942 12.9327Z" fill="white"/>
</g>
<defs>
<linearGradient id="paint0_linear_67_4103" x1="2172.85" y1="4330.63" x2="2172.85" y2="0.776611" gradientUnits="userSpaceOnUse">
<stop stop-color="#1FAF38"/>
<stop offset="1" stop-color="#60D669"/>
</linearGradient>
<linearGradient id="paint1_linear_67_4103" x1="2250" y1="4485.12" x2="2250" y2="0" gradientUnits="userSpaceOnUse">
<stop stop-color="#F9F9F9"/>
<stop offset="1" stop-color="white"/>
</linearGradient>
<clipPath id="clip0_67_4103">
<rect width="45" height="45" fill="white"/>
</clipPath>
</defs>
</svg>
