<svg width="29" height="29" viewBox="0 0 29 29" fill="none" xmlns="http://www.w3.org/2000/svg">
<g clip-path="url(#clip0_0_239)">
<path d="M25.665 7.68521C25.375 6.67021 24.65 5.94521 23.635 5.65521C20.59 5.36521 17.545 5.07521 14.5 5.22021C11.455 5.22021 8.41002 5.36521 5.36502 5.65521C4.49502 5.94521 3.62502 6.81521 3.33502 7.68521C3.04502 10.0052 2.90002 12.1802 2.90002 14.5002C2.90002 16.8202 3.04502 18.9952 3.33502 21.3152C3.62502 22.3302 4.35002 23.0552 5.36502 23.3452C8.41002 23.6352 11.455 23.9252 14.5 23.7802C17.545 23.7802 20.59 23.6352 23.635 23.3452C24.65 23.0552 25.375 22.3302 25.665 21.3152C25.955 19.1402 26.1 16.8202 26.1 14.5002C26.1 12.1802 25.955 10.0052 25.665 7.68521ZM11.6 18.8502V10.1502L19.14 14.5002L11.6 18.8502Z" fill="white"/>
</g>
<defs>
<clipPath id="clip0_0_239">
<rect width="29" height="29" fill="white"/>
</clipPath>
</defs>
</svg>
